<svg width="229" height="687" xmlns="http://www.w3.org/2000/svg"><g fill-rule="nonzero" fill="none"><path fill="#FFB9B9" d="M48 610l1 24v21h26v-45zM191 588l1 24v21h26l-5-49zM165 199l-8 63-26 75-12-43 15-27-3-57z"/><path d="M40 193s-22 39-19 43 5 26 5 26h8l14-34-8-35z" fill="#2F2E41"/><circle fill="#FFB9B9" cx="94" cy="54.5" r="35"/><path d="M81 82s19 26 13 39 58-7 58-7-32-36-33-48L81 82z" fill="#FFB9B9"/><path d="M152 198a139 139 0 00-10 17c-11 24-20 51-20 51l-93-3 3-8 13-39c-23-14-1-41 11-66 11-22 34-38 38-40l17-3 30-5c5 1 11 2 15 5s7 6 9 10c4 5 6 12 6 20 1 22-10 48-19 61z" fill="#D0CDE1"/><path d="M158 116s18 21 19 39-3 52-12 52-25 6-24 0l17-91z" fill="#D0CDE1"/><path d="M141 154l-11 2c-4-30-26-42-36-46l17-3c22 11 30 47 30 47z" fill="#2F2E41"/><path d="M216 584c-1 6-30 17-38 16S91 406 91 406s0 215-2 219-36 0-48-14-20-233-25-270 10-85 10-85l6-1 20-3s0-5 30-29 48-67 48-67l3-6 8 4c8-16 13-31 15-47 4 3 7 6 9 10l-2 6c-7 21-14 54-22 86v3l1 3c2 5 5 12-1 16-9 6-12 36-12 36 17 15 21 86 19 91s-2 4 3 7 5 28 5 28 61 185 60 191zM63 643s-6 6-10 3-5-16-5-16-45-4-36 26 72 34 74 28-7-44-7-44l-16 3zM206 621s-6 6-10 3-5-16-5-16-45-4-36 26 72 34 74 28-7-44-7-44l-16 3z" fill="#2F2E41"/><path d="M66 176l-4 53-51 57s-17 8-7 22 14 15 14 15l1-18 69-55 7-74H66z" fill="#FFB9B9"/><path d="M98 154s4-45-16-41-21 23-21 23-9 46-1 48 35 6 38 0 0-30 0-30z" fill="#D0CDE1"/><path d="M184 84l-20-11c1-15-1-29-7-36-3-7-9-14-14-20C130 4 103-4 98 3 61 4 57 33 57 33c0 12 13 12 24 12-1 8 1 17 9 21 15 7 19 16 12 23-8 6-21 24-3 28 17 5 20 13 14 17-5 4 12-6 12-6s3 17 18 13l4-3c5 4 8 7 11 7 16 0 14-18 14-18l13 4c-6-2-6-12 10-20 15-9-2-23-11-27z" fill="#2F2E41"/></g></svg>